<svg data-v-423bf9ae="" xmlns="http://www.w3.org/2000/svg" viewBox="0 0 213.83086974330215 60" class="font"><!----><!----><!----><g data-v-423bf9ae="" id="480fea83-c172-4cc2-8e9b-4c2a308b91f5" fill="black" transform="matrix(4.814926153524016,0,0,4.814926153524016,5.344567707352098,-12.855853197258838)"><path d="M9.93 5.04L9.93 5.14L9.93 5.14Q9.93 5.63 9.75 6.14L9.75 6.14L9.75 6.14Q9.58 6.65 9.28 7.15L9.28 7.15L9.28 7.15Q8.98 7.64 8.57 8.10L8.57 8.10L8.57 8.10Q8.17 8.56 7.72 8.95L7.72 8.95L7.72 8.95Q7.27 9.34 6.78 9.64L6.78 9.64L6.78 9.64Q6.30 9.95 5.84 10.12L5.84 10.12L5.84 10.12Q5.76 10.01 5.65 9.86L5.65 9.86L5.65 9.86Q5.54 9.71 5.41 9.54L5.41 9.54L5.41 9.54Q5.28 9.37 5.14 9.20L5.14 9.20L5.14 9.20Q5.01 9.04 4.89 8.89L4.89 8.89L4.89 8.89Q5.87 8.51 6.64 7.98L6.64 7.98L6.64 7.98Q7.42 7.46 7.96 6.88L7.96 6.88L7.96 6.88Q8.50 6.30 8.79 5.71L8.79 5.71L8.79 5.71Q9.08 5.12 9.08 4.61L9.08 4.61L9.08 4.61Q9.08 4.54 9.06 4.46L9.06 4.46L9.06 4.46Q9.04 4.39 9.00 4.33L9.00 4.33L9.00 4.33Q8.95 4.28 8.87 4.26L8.87 4.26L8.87 4.26Q8.79 4.23 8.68 4.26L8.68 4.26L8.68 4.26Q8.36 4.33 7.97 4.51L7.97 4.51L7.97 4.51Q7.59 4.70 7.16 4.97L7.16 4.97L7.16 4.97Q6.73 5.25 6.27 5.61L6.27 5.61L6.27 5.61Q5.81 5.97 5.34 6.39L5.34 6.39L5.34 6.39Q5.09 7.18 4.76 8.07L4.76 8.07L4.76 8.07Q4.43 8.96 4.05 9.83L4.05 9.83L4.05 9.83Q3.66 10.71 3.24 11.54L3.24 11.54L3.24 11.54Q2.82 12.37 2.39 13.05L2.39 13.05L2.39 13.05Q1.96 13.74 1.52 14.24L1.52 14.24L1.52 14.24Q1.09 14.75 0.68 14.96L0.68 14.96L0.68 14.96Q0.58 15.02 0.43 15.07L0.43 15.07L0.43 15.07Q0.29 15.11 0.07 15.13L0.07 15.13L0.07 15.13Q-0.01 15.14-0.13 15.07L-0.13 15.07L-0.13 15.07Q-0.24 14.99-0.36 14.88L-0.36 14.88L-0.36 14.88Q-0.47 14.76-0.59 14.62L-0.59 14.62L-0.59 14.62Q-0.70 14.47-0.80 14.34L-0.80 14.34L-0.80 14.34Q-0.90 14.21-0.97 14.11L-0.97 14.11L-0.97 14.11Q-1.03 14.01-1.05 13.97L-1.05 13.97L-1.05 13.97Q-1.11 13.87-1.11 13.73L-1.11 13.73L-1.11 13.73Q-1.11 13.59-1.08 13.45L-1.08 13.45L-1.08 13.45Q-0.94 13.00-0.70 12.45L-0.70 12.45L-0.70 12.45Q-0.45 11.90-0.12 11.30L-0.12 11.30L-0.12 11.30Q0.21 10.71 0.62 10.07L0.62 10.07L0.62 10.07Q1.03 9.44 1.49 8.81L1.49 8.81L1.49 8.81Q1.96 8.19 2.48 7.58L2.48 7.58L2.48 7.58Q2.99 6.97 3.54 6.42L3.54 6.42L3.54 6.42Q3.89 5.33 4.12 4.36L4.12 4.36L4.12 4.36Q4.34 3.39 4.38 2.67L4.38 2.67L4.38 2.67Q4.66 2.78 4.90 2.95L4.90 2.95L4.90 2.95Q5.15 3.12 5.35 3.31L5.35 3.31L5.35 3.31Q5.54 3.49 5.69 3.68L5.69 3.68L5.69 3.68Q5.84 3.86 5.93 4.01L5.93 4.01L5.93 4.01Q5.92 4.12 5.90 4.24L5.90 4.24L5.90 4.24Q5.88 4.36 5.84 4.50L5.84 4.50L5.84 4.50Q6.54 4.05 7.20 3.80L7.20 3.80L7.20 3.80Q7.87 3.55 8.50 3.55L8.50 3.55L8.50 3.55Q8.63 3.55 8.78 3.64L8.78 3.64L8.78 3.64Q8.93 3.72 9.09 3.85L9.09 3.85L9.09 3.85Q9.25 3.99 9.40 4.15L9.40 4.15L9.40 4.15Q9.54 4.31 9.66 4.48L9.66 4.48L9.66 4.48Q9.78 4.65 9.85 4.80L9.85 4.80L9.85 4.80Q9.92 4.94 9.93 5.04L9.93 5.04ZM0.03 13.73L0.03 13.73L0.03 13.73Q0.18 13.73 0.45 13.38L0.45 13.38L0.45 13.38Q0.72 13.04 1.05 12.43L1.05 12.43L1.05 12.43Q1.38 11.83 1.75 11.03L1.75 11.03L1.75 11.03Q2.12 10.23 2.48 9.34L2.48 9.34L2.48 9.34Q1.94 9.98 1.48 10.61L1.48 10.61L1.48 10.61Q1.02 11.24 0.68 11.80L0.68 11.80L0.68 11.80Q0.34 12.37 0.15 12.84L0.15 12.84L0.15 12.84Q-0.04 13.32-0.04 13.65L-0.04 13.65L-0.04 13.65Q-0.04 13.73 0.03 13.73ZM11.16 10.85L11.16 10.85L11.16 10.85Q11.07 11.12 10.94 11.46L10.94 11.46L10.94 11.46Q10.81 11.80 10.68 12.13L10.68 12.13L10.68 12.13Q10.56 12.46 10.48 12.72L10.48 12.72L10.48 12.72Q10.39 12.99 10.39 13.10L10.39 13.10L10.39 13.10Q10.39 13.15 10.43 13.15L10.43 13.15L10.43 13.15Q10.51 13.15 10.66 13.06L10.66 13.06L10.66 13.06Q10.81 12.97 11.00 12.82L11.00 12.82L11.00 12.82Q11.20 12.68 11.41 12.51L11.41 12.51L11.41 12.51Q11.62 12.34 11.82 12.17L11.82 12.17L11.82 12.17Q12.01 12.00 12.17 11.87L12.17 11.87L12.17 11.87Q12.33 11.73 12.41 11.66L12.41 11.66L12.41 11.66Q12.47 11.72 12.55 11.82L12.55 11.82L12.55 11.82Q12.64 11.92 12.71 12.00L12.71 12.00L12.71 12.00Q12.56 12.15 12.34 12.36L12.34 12.36L12.34 12.36Q12.11 12.58 11.85 12.80L11.85 12.80L11.85 12.80Q11.59 13.03 11.30 13.25L11.30 13.25L11.30 13.25Q11.02 13.48 10.75 13.66L10.75 13.66L10.75 13.66Q10.48 13.84 10.25 13.95L10.25 13.95L10.25 13.95Q10.01 14.05 9.86 14.05L9.86 14.05L9.86 14.05Q9.75 14.05 9.60 13.98L9.60 13.98L9.60 13.98Q9.44 13.91 9.30 13.81L9.30 13.81L9.30 13.81Q9.15 13.70 9.05 13.57L9.05 13.57L9.05 13.57Q8.95 13.44 8.95 13.32L8.95 13.32L8.95 13.32Q9.05 12.86 9.15 12.52L9.15 12.52L9.15 12.52Q9.26 12.17 9.34 11.93L9.34 11.93L9.34 11.93Q9.43 11.69 9.50 11.54L9.50 11.54L9.50 11.54Q9.57 11.39 9.60 11.31L9.60 11.31L9.60 11.31Q9.52 11.28 9.45 11.24L9.45 11.24L9.45 11.24Q9.37 11.20 9.30 11.16L9.30 11.16L9.30 11.16Q9.19 11.27 9.05 11.40L9.05 11.40L9.05 11.40Q8.92 11.53 8.78 11.66L8.78 11.66L8.78 11.66Q8.65 11.79 8.51 11.92L8.51 11.92L8.51 11.92Q8.37 12.04 8.26 12.14L8.26 12.14L7.94 11.81L7.94 11.81Q8.11 11.63 8.36 11.39L8.36 11.39L8.36 11.39Q8.61 11.15 8.85 10.90L8.85 10.90L8.85 10.90Q8.68 10.80 8.54 10.71L8.54 10.71L8.54 10.71Q8.41 10.62 8.31 10.54L8.31 10.54L8.31 10.54Q8.20 10.46 8.11 10.39L8.11 10.39L8.11 10.39Q8.07 10.37 8.07 10.30L8.07 10.30L8.07 10.30Q8.07 10.23 8.12 10.09L8.12 10.09L8.12 10.09Q8.18 9.95 8.27 9.79L8.27 9.79L8.27 9.79Q8.36 9.63 8.46 9.46L8.46 9.46L8.46 9.46Q8.57 9.29 8.66 9.15L8.66 9.15L8.66 9.15Q8.76 9.02 8.83 8.93L8.83 8.93L8.83 8.93Q8.90 8.85 8.92 8.85L8.92 8.85L8.92 8.85Q8.93 8.85 9.01 8.88L9.01 8.88L9.01 8.88Q9.09 8.91 9.18 8.96L9.18 8.96L9.18 8.96Q9.27 9.00 9.34 9.06L9.34 9.06L9.34 9.06Q9.42 9.11 9.44 9.15L9.44 9.15L9.44 9.15Q9.45 9.19 9.45 9.30L9.45 9.30L9.45 9.30Q9.46 9.41 9.47 9.56L9.47 9.56L9.47 9.56Q9.73 9.70 10.01 9.87L10.01 9.87L10.01 9.87Q10.29 10.05 10.53 10.21L10.53 10.21L10.53 10.21Q10.80 10.38 11.05 10.57L11.05 10.57L11.05 10.57Q11.14 10.62 11.16 10.71L11.16 10.71L11.16 10.71Q11.18 10.79 11.16 10.85ZM13.22 12.98L13.22 12.98L13.22 12.98Q13.22 13.19 13.37 13.19L13.37 13.19L13.37 13.19Q13.53 13.19 13.79 12.94L13.79 12.94L13.79 12.94Q14.05 12.69 14.33 12.30L14.33 12.30L14.33 12.30Q14.31 12.23 14.31 12.17L14.31 12.17L14.31 12.17Q14.31 12.11 14.31 12.07L14.31 12.07L14.31 12.07Q14.31 11.93 14.34 11.74L14.34 11.74L14.34 11.74Q14.37 11.55 14.49 11.31L14.49 11.31L14.49 11.31Q14.57 11.13 14.69 10.95L14.69 10.95L14.69 10.95Q14.79 10.79 14.92 10.61L14.92 10.61L14.92 10.61Q15.06 10.43 15.22 10.27L15.22 10.27L15.26 10.23L15.26 10.23Q15.33 10.32 15.45 10.46L15.45 10.46L15.45 10.46Q15.56 10.60 15.67 10.74L15.67 10.74L15.67 10.74Q15.78 10.89 15.87 11.01L15.87 11.01L15.87 11.01Q15.96 11.14 15.98 11.18L15.98 11.18L15.98 11.18Q15.98 11.48 15.87 11.77L15.87 11.77L15.87 11.77Q15.76 12.07 15.59 12.35L15.59 12.35L15.59 12.35Q16.00 12.33 16.35 12.14L16.35 12.14L16.35 12.14Q16.70 11.96 17.08 11.55L17.08 11.55L17.08 11.55Q17.14 11.61 17.24 11.72L17.24 11.72L17.24 11.72Q17.34 11.83 17.40 11.90L17.40 11.90L17.40 11.90Q17.12 12.20 16.84 12.40L16.84 12.40L16.84 12.40Q16.56 12.60 16.29 12.71L16.29 12.71L16.29 12.71Q16.01 12.83 15.72 12.88L15.72 12.88L15.72 12.88Q15.44 12.93 15.13 12.93L15.13 12.93L15.13 12.93Q14.90 13.18 14.64 13.38L14.64 13.38L14.64 13.38Q14.37 13.59 14.09 13.74L14.09 13.74L14.09 13.74Q13.82 13.89 13.54 13.97L13.54 13.97L13.54 13.97Q13.27 14.05 13.02 14.05L13.02 14.05L13.02 14.05Q12.82 14.05 12.60 13.93L12.60 13.93L12.60 13.93Q12.38 13.81 12.20 13.63L12.20 13.63L12.20 13.63Q12.02 13.45 11.91 13.24L11.91 13.24L11.91 13.24Q11.79 13.04 11.79 12.88L11.79 12.88L11.79 12.88Q11.79 12.36 11.93 11.85L11.93 11.85L11.93 11.85Q12.07 11.33 12.37 10.89L12.37 10.89L12.37 10.89Q12.67 10.44 13.13 10.10L13.13 10.10L13.13 10.10Q13.59 9.75 14.23 9.58L14.23 9.58L14.23 9.58Q14.25 9.56 14.30 9.56L14.30 9.56L14.30 9.56Q14.35 9.55 14.38 9.55L14.38 9.55L14.38 9.55Q14.48 9.55 14.58 9.62L14.58 9.62L14.58 9.62Q14.69 9.69 14.78 9.78L14.78 9.78L14.78 9.78Q14.88 9.87 14.94 9.96L14.94 9.96L14.94 9.96Q15.00 10.04 15.00 10.07L15.00 10.07L15.00 10.07Q14.98 10.10 14.90 10.15L14.90 10.15L14.90 10.15Q14.81 10.21 14.66 10.33L14.66 10.33L14.66 10.33Q14.51 10.45 14.30 10.68L14.30 10.68L14.30 10.68Q14.10 10.91 13.85 11.29L13.85 11.29L13.85 11.29Q13.48 11.84 13.35 12.29L13.35 12.29L13.35 12.29Q13.22 12.74 13.22 12.98ZM26.51 4.54L26.51 4.54L26.51 4.54Q26.52 4.55 26.54 4.60L26.54 4.60L26.54 4.60Q26.56 4.66 26.58 4.72L26.58 4.72L26.58 4.72Q26.60 4.79 26.62 4.85L26.62 4.85L26.62 4.85Q26.63 4.92 26.63 4.94L26.63 4.94L26.63 4.94Q26.63 5.17 26.54 5.50L26.54 5.50L26.54 5.50Q26.44 5.82 26.27 6.19L26.27 6.19L26.27 6.19Q26.11 6.55 25.88 6.92L25.88 6.92L25.88 6.92Q25.66 7.30 25.40 7.64L25.40 7.64L25.40 7.64Q25.15 7.98 24.88 8.25L24.88 8.25L24.88 8.25Q24.61 8.53 24.35 8.70L24.35 8.70L24.35 8.70Q24.25 8.61 24.12 8.48L24.12 8.48L24.12 8.48Q23.99 8.36 23.84 8.22L23.84 8.22L23.84 8.22Q23.69 8.08 23.54 7.94L23.54 7.94L23.54 7.94Q23.39 7.79 23.26 7.66L23.26 7.66L23.26 7.66Q23.45 7.50 23.70 7.24L23.70 7.24L23.70 7.24Q23.95 6.99 24.21 6.67L24.21 6.67L24.21 6.67Q24.47 6.36 24.71 6.02L24.71 6.02L24.71 6.02Q24.96 5.69 25.14 5.38L25.14 5.38L25.14 5.38Q25.32 5.07 25.42 4.81L25.42 4.81L25.42 4.81Q25.53 4.56 25.50 4.41L25.50 4.41L25.50 4.41Q25.48 4.33 25.43 4.30L25.43 4.30L25.43 4.30Q25.39 4.27 25.27 4.27L25.27 4.27L25.27 4.27Q24.86 4.27 24.31 4.44L24.31 4.44L24.31 4.44Q23.76 4.60 23.17 4.91L23.17 4.91L23.17 4.91Q22.57 5.22 21.97 5.67L21.97 5.67L21.97 5.67Q21.36 6.13 20.83 6.69L20.83 6.69L20.83 6.69Q20.30 7.26 19.89 7.94L19.89 7.94L19.89 7.94Q19.48 8.61 19.26 9.38L19.26 9.38L19.26 9.38Q19.74 9.37 20.17 9.34L20.17 9.34L20.17 9.34Q20.60 9.31 20.99 9.28L20.99 9.28L20.99 9.28Q21.38 9.24 21.73 9.21L21.73 9.21L21.73 9.21Q22.09 9.19 22.42 9.19L22.42 9.19L22.42 9.19Q22.60 9.19 22.80 9.38L22.80 9.38L22.80 9.38Q23.01 9.57 23.19 9.84L23.19 9.84L23.19 9.84Q23.37 10.10 23.48 10.38L23.48 10.38L23.48 10.38Q23.60 10.66 23.60 10.83L23.60 10.83L23.60 10.83Q23.60 11.32 23.35 11.81L23.35 11.81L23.35 11.81Q23.10 12.30 22.68 12.75L22.68 12.75L22.68 12.75Q22.26 13.21 21.70 13.60L21.70 13.60L21.70 13.60Q21.15 13.99 20.54 14.28L20.54 14.28L20.54 14.28Q19.93 14.57 19.29 14.74L19.29 14.74L19.29 14.74Q18.66 14.91 18.08 14.91L18.08 14.91L18.08 14.91Q18.01 14.85 17.88 14.72L17.88 14.72L17.88 14.72Q17.76 14.59 17.62 14.44L17.62 14.44L17.62 14.44Q17.48 14.29 17.33 14.12L17.33 14.12L17.33 14.12Q17.19 13.95 17.06 13.79L17.06 13.79L17.06 13.79Q16.93 13.63 16.84 13.50L16.84 13.50L16.84 13.50Q16.74 13.37 16.71 13.30L16.71 13.30L16.71 13.30Q17.08 13.36 17.61 13.33L17.61 13.33L17.61 13.33Q18.14 13.30 18.73 13.18L18.73 13.18L18.73 13.18Q19.32 13.06 19.92 12.83L19.92 12.83L19.92 12.83Q20.51 12.60 21.03 12.25L21.03 12.25L21.03 12.25Q21.55 11.90 21.95 11.42L21.95 11.42L21.95 11.42Q22.35 10.94 22.52 10.30L22.52 10.30L22.52 10.30Q22.13 10.31 21.81 10.34L21.81 10.34L21.81 10.34Q21.49 10.37 21.18 10.41L21.18 10.41L21.18 10.41Q20.88 10.45 20.57 10.47L20.57 10.47L20.57 10.47Q20.25 10.50 19.87 10.50L19.87 10.50L19.87 10.50Q19.75 10.50 19.61 10.50L19.61 10.50L19.61 10.50Q19.46 10.49 19.32 10.48L19.32 10.48L19.32 10.48Q19.17 10.46 19.04 10.42L19.04 10.42L19.04 10.42Q18.92 10.38 18.83 10.30L18.83 10.30L18.83 10.30Q18.65 10.14 18.48 9.97L18.48 9.97L18.48 9.97Q18.31 9.80 18.17 9.61L18.17 9.61L18.17 9.61Q18.03 9.43 17.95 9.25L17.95 9.25L17.95 9.25Q17.87 9.06 17.87 8.89L17.87 8.89L17.87 8.89Q17.87 8.37 18.13 7.73L18.13 7.73L18.13 7.73Q18.39 7.10 18.85 6.45L18.85 6.45L18.85 6.45Q19.31 5.80 19.94 5.19L19.94 5.19L19.94 5.19Q20.57 4.57 21.31 4.09L21.31 4.09L21.31 4.09Q22.05 3.62 22.87 3.33L22.87 3.33L22.87 3.33Q23.69 3.04 24.53 3.04L24.53 3.04L24.53 3.04Q24.83 3.04 25.07 3.13L25.07 3.13L25.07 3.13Q25.31 3.22 25.51 3.36L25.51 3.36L25.51 3.36Q25.71 3.51 25.87 3.68L25.87 3.68L25.87 3.68Q26.02 3.86 26.15 4.02L26.15 4.02L26.15 4.02Q26.27 4.18 26.36 4.32L26.36 4.32L26.36 4.32Q26.45 4.46 26.51 4.54ZM28.90 13.00L28.90 13.00L28.90 13.00Q29.01 13.00 29.18 12.91L29.18 12.91L29.18 12.91Q29.35 12.83 29.54 12.70L29.54 12.70L29.54 12.70Q29.74 12.58 29.95 12.42L29.95 12.42L29.95 12.42Q30.16 12.26 30.35 12.11L30.35 12.11L30.35 12.11Q30.54 11.96 30.69 11.83L30.69 11.83L30.69 11.83Q30.84 11.70 30.92 11.63L30.92 11.63L30.92 11.63Q30.98 11.70 31.07 11.79L31.07 11.79L31.07 11.79Q31.15 11.89 31.23 11.97L31.23 11.97L31.23 11.97Q31.08 12.12 30.85 12.34L30.85 12.34L30.85 12.34Q30.63 12.55 30.36 12.78L30.36 12.78L30.36 12.78Q30.10 13.00 29.81 13.23L29.81 13.23L29.81 13.23Q29.53 13.45 29.26 13.63L29.26 13.63L29.26 13.63Q28.99 13.81 28.76 13.92L28.76 13.92L28.76 13.92Q28.53 14.03 28.37 14.03L28.37 14.03L28.37 14.03Q28.10 14.03 27.89 13.92L27.89 13.92L27.89 13.92Q27.67 13.82 27.50 13.65L27.50 13.65L27.50 13.65Q27.32 13.48 27.17 13.27L27.17 13.27L27.17 13.27Q27.02 13.05 26.89 12.82L26.89 12.82L26.89 12.82Q26.78 12.97 26.66 13.16L26.66 13.16L26.66 13.16Q26.54 13.34 26.43 13.50L26.43 13.50L26.43 13.50Q26.33 13.67 26.26 13.79L26.26 13.79L26.26 13.79Q26.20 13.91 26.17 13.94L26.17 13.94L26.17 13.94Q26.16 13.99 26.13 14.02L26.13 14.02L26.13 14.02Q26.11 14.04 26.04 14.04L26.04 14.04L26.04 14.04Q25.94 14.04 25.80 13.96L25.80 13.96L25.80 13.96Q25.66 13.88 25.52 13.75L25.52 13.75L25.52 13.75Q25.38 13.62 25.23 13.47L25.23 13.47L25.23 13.47Q25.09 13.32 24.99 13.16L24.99 13.16L24.99 13.16Q24.94 13.08 24.92 12.99L24.92 12.99L24.92 12.99Q24.91 12.89 24.91 12.76L24.91 12.76L24.91 12.76Q24.91 12.30 25.02 11.74L25.02 11.74L25.02 11.74Q25.13 11.17 25.33 10.54L25.33 10.54L25.33 10.54Q25.53 9.92 25.80 9.25L25.80 9.25L25.80 9.25Q26.08 8.59 26.41 7.93L26.41 7.93L26.41 7.93Q26.75 7.28 27.14 6.66L27.14 6.66L27.14 6.66Q27.53 6.04 27.95 5.50L27.95 5.50L27.95 5.50Q28.36 4.96 28.80 4.53L28.80 4.53L28.80 4.53Q29.24 4.09 29.68 3.82L29.68 3.82L29.68 3.82Q29.75 3.78 29.81 3.77L29.81 3.77L29.81 3.77Q29.87 3.75 29.91 3.75L29.91 3.75L29.91 3.75Q29.99 3.75 30.14 3.85L30.14 3.85L30.14 3.85Q30.29 3.94 30.46 4.07L30.46 4.07L30.46 4.07Q30.63 4.20 30.77 4.33L30.77 4.33L30.77 4.33Q30.92 4.46 30.99 4.54L30.99 4.54L30.99 4.54Q31.03 4.60 31.03 4.72L31.03 4.72L31.03 4.72Q31.03 5.17 30.73 5.84L30.73 5.84L30.73 5.84Q30.43 6.51 29.88 7.32L29.88 7.32L29.88 7.32Q29.33 8.13 28.56 9.04L28.56 9.04L28.56 9.04Q27.78 9.95 26.83 10.87L26.83 10.87L26.83 10.87Q26.73 11.22 26.63 11.56L26.63 11.56L26.63 11.56Q26.54 11.91 26.46 12.26L26.46 12.26L26.46 12.26Q27.10 11.33 27.59 10.80L27.59 10.80L27.59 10.80Q28.09 10.26 28.44 9.98L28.44 9.98L28.44 9.98Q28.80 9.71 29.02 9.63L29.02 9.63L29.02 9.63Q29.24 9.55 29.33 9.55L29.33 9.55L29.33 9.55Q29.42 9.55 29.53 9.64L29.53 9.64L29.53 9.64Q29.64 9.72 29.74 9.83L29.74 9.83L29.74 9.83Q29.85 9.95 29.93 10.05L29.93 10.05L29.93 10.05Q30.01 10.16 30.04 10.21L30.04 10.21L30.04 10.21Q30.04 10.27 29.89 10.48L29.89 10.48L29.89 10.48Q29.74 10.69 29.48 10.96L29.48 10.96L29.48 10.96Q29.21 11.24 28.84 11.54L28.84 11.54L28.84 11.54Q28.48 11.85 28.05 12.11L28.05 12.11L28.05 12.11Q28.27 12.42 28.42 12.60L28.42 12.60L28.42 12.60Q28.58 12.78 28.69 12.87L28.69 12.87L28.69 12.87Q28.81 12.97 28.90 13.00ZM28.17 7.48L28.17 7.48L28.17 7.48Q27.97 7.89 27.75 8.39L27.75 8.39L27.75 8.39Q27.54 8.89 27.32 9.45L27.32 9.45L27.32 9.45Q28.08 8.59 28.62 7.85L28.62 7.85L28.62 7.85Q29.16 7.11 29.50 6.51L29.50 6.51L29.50 6.51Q29.85 5.91 30.00 5.46L30.00 5.46L30.00 5.46Q30.16 5.00 30.16 4.69L30.16 4.69L30.16 4.69Q30.16 4.67 30.16 4.65L30.16 4.65L30.16 4.65Q30.15 4.62 30.12 4.62L30.12 4.62L30.12 4.62Q30.04 4.62 29.85 4.81L29.85 4.81L29.85 4.81Q29.67 5.00 29.41 5.37L29.41 5.37L29.41 5.37Q29.15 5.74 28.83 6.27L28.83 6.27L28.83 6.27Q28.51 6.80 28.17 7.48ZM31.31 14.05L31.31 14.05L31.31 14.05Q31.21 14.05 31.05 13.98L31.05 13.98L31.05 13.98Q30.89 13.91 30.75 13.81L30.75 13.81L30.75 13.81Q30.60 13.70 30.50 13.57L30.50 13.57L30.50 13.57Q30.40 13.44 30.40 13.32L30.40 13.32L30.40 13.32Q30.47 13.02 30.58 12.63L30.58 12.63L30.58 12.63Q30.70 12.24 30.83 11.83L30.83 11.83L30.83 11.83Q30.97 11.43 31.11 11.04L31.11 11.04L31.11 11.04Q31.26 10.66 31.38 10.36L31.38 10.36L31.38 10.36Q31.50 10.06 31.59 9.87L31.59 9.87L31.59 9.87Q31.68 9.69 31.71 9.69L31.71 9.69L31.71 9.69Q31.75 9.69 31.91 9.78L31.91 9.78L31.91 9.78Q32.07 9.86 32.26 9.99L32.26 9.99L32.26 9.99Q32.44 10.12 32.58 10.26L32.58 10.26L32.58 10.26Q32.72 10.40 32.72 10.50L32.72 10.50L32.72 10.50Q32.72 10.52 32.72 10.55L32.72 10.55L32.72 10.55Q32.71 10.58 32.70 10.63L32.70 10.63L32.70 10.63Q32.64 10.80 32.56 11.03L32.56 11.03L32.56 11.03Q32.47 11.27 32.38 11.52L32.38 11.52L32.38 11.52Q32.28 11.76 32.18 12.01L32.18 12.01L32.18 12.01Q32.09 12.26 32.01 12.48L32.01 12.48L32.01 12.48Q31.94 12.70 31.89 12.87L31.89 12.87L31.89 12.87Q31.84 13.03 31.84 13.10L31.84 13.10L31.84 13.10Q31.84 13.15 31.88 13.15L31.88 13.15L31.88 13.15Q31.96 13.15 32.11 13.06L32.11 13.06L32.11 13.06Q32.26 12.97 32.45 12.82L32.45 12.82L32.45 12.82Q32.65 12.68 32.86 12.51L32.86 12.51L32.86 12.51Q33.07 12.34 33.27 12.17L33.27 12.17L33.27 12.17Q33.46 12.00 33.62 11.87L33.62 11.87L33.62 11.87Q33.78 11.73 33.86 11.66L33.86 11.66L33.86 11.66Q33.92 11.72 34.01 11.82L34.01 11.82L34.01 11.82Q34.09 11.92 34.17 12.00L34.17 12.00L34.17 12.00Q34.02 12.15 33.79 12.36L33.79 12.36L33.79 12.36Q33.56 12.58 33.30 12.80L33.30 12.80L33.30 12.80Q33.04 13.03 32.75 13.25L32.75 13.25L32.75 13.25Q32.47 13.48 32.20 13.66L32.20 13.66L32.20 13.66Q31.94 13.84 31.71 13.95L31.71 13.95L31.71 13.95Q31.47 14.05 31.31 14.05ZM34.02 7.60L34.02 7.60L34.02 7.60Q34.01 7.63 33.96 7.73L33.96 7.73L33.96 7.73Q33.92 7.84 33.86 7.98L33.86 7.98L33.86 7.98Q33.80 8.12 33.72 8.27L33.72 8.27L33.72 8.27Q33.64 8.43 33.56 8.56L33.56 8.56L33.56 8.56Q33.49 8.69 33.42 8.77L33.42 8.77L33.42 8.77Q33.35 8.86 33.31 8.86L33.31 8.86L33.31 8.86Q33.19 8.85 33.01 8.78L33.01 8.78L33.01 8.78Q32.84 8.72 32.68 8.63L32.68 8.63L32.68 8.63Q32.52 8.54 32.41 8.46L32.41 8.46L32.41 8.46Q32.29 8.38 32.29 8.35L32.29 8.35L32.29 8.35Q32.29 8.20 32.38 7.97L32.38 7.97L32.38 7.97Q32.46 7.75 32.57 7.53L32.57 7.53L32.57 7.53Q32.68 7.31 32.79 7.16L32.79 7.16L32.79 7.16Q32.90 7 32.96 7L32.96 7L32.96 7Q33.09 7 33.26 7.08L33.26 7.08L33.26 7.08Q33.44 7.16 33.61 7.26L33.61 7.26L33.61 7.26Q33.78 7.36 33.90 7.46L33.90 7.46L33.90 7.46Q34.02 7.56 34.02 7.60ZM35.23 13.20L35.23 13.20L35.23 13.20Q35.34 13.20 35.53 13.10L35.53 13.10L35.53 13.10Q35.72 13.01 35.94 12.86L35.94 12.86L35.94 12.86Q36.17 12.71 36.42 12.54L36.42 12.54L36.42 12.54Q36.66 12.36 36.88 12.19L36.88 12.19L36.88 12.19Q37.09 12.02 37.26 11.87L37.26 11.87L37.26 11.87Q37.43 11.73 37.52 11.66L37.52 11.66L37.52 11.66Q37.58 11.72 37.66 11.82L37.66 11.82L37.66 11.82Q37.75 11.92 37.82 12.00L37.82 12.00L37.82 12.00Q37.67 12.15 37.45 12.36L37.45 12.36L37.45 12.36Q37.22 12.58 36.96 12.80L36.96 12.80L36.96 12.80Q36.70 13.03 36.41 13.25L36.41 13.25L36.41 13.25Q36.13 13.48 35.86 13.66L35.86 13.66L35.86 13.66Q35.59 13.84 35.36 13.95L35.36 13.95L35.36 13.95Q35.12 14.05 34.97 14.05L34.97 14.05L34.97 14.05Q34.75 14.05 34.52 13.90L34.52 13.90L34.52 13.90Q34.28 13.75 34.08 13.55L34.08 13.55L34.08 13.55Q33.87 13.35 33.73 13.15L33.73 13.15L33.73 13.15Q33.58 12.94 33.56 12.84L33.56 12.84L33.56 12.84Q33.55 12.80 33.55 12.74L33.55 12.74L33.55 12.74Q33.55 12.68 33.55 12.61L33.55 12.61L33.55 12.61Q33.55 12.27 33.64 11.75L33.64 11.75L33.64 11.75Q33.72 11.22 33.87 10.64L33.87 10.64L33.87 10.64Q34.01 10.06 34.20 9.48L34.20 9.48L34.20 9.48Q34.38 8.90 34.59 8.46L34.59 8.46L34.59 8.46Q35.01 7.55 35.45 6.84L35.45 6.84L35.45 6.84Q35.89 6.14 36.31 5.62L36.31 5.62L36.31 5.62Q36.74 5.09 37.13 4.74L37.13 4.74L37.13 4.74Q37.52 4.38 37.83 4.16L37.83 4.16L37.83 4.16Q38.14 3.94 38.35 3.85L38.35 3.85L38.35 3.85Q38.57 3.75 38.65 3.75L38.65 3.75L38.65 3.75Q38.78 3.80 38.91 3.89L38.91 3.89L38.91 3.89Q39.05 3.99 39.16 4.09L39.16 4.09L39.16 4.09Q39.28 4.19 39.37 4.29L39.37 4.29L39.37 4.29Q39.46 4.39 39.50 4.44L39.50 4.44L39.50 4.44Q39.55 4.49 39.57 4.54L39.57 4.54L39.57 4.54Q39.59 4.59 39.59 4.68L39.59 4.68L39.59 4.68Q39.59 4.84 39.50 5.13L39.50 5.13L39.50 5.13Q39.42 5.41 39.20 5.85L39.20 5.85L39.20 5.85Q38.97 6.30 38.57 6.91L38.57 6.91L38.57 6.91Q38.17 7.53 37.53 8.35L37.53 8.35L37.53 8.35Q37.23 8.73 36.89 9.13L36.89 9.13L36.89 9.13Q36.61 9.47 36.23 9.87L36.23 9.87L36.23 9.87Q35.85 10.27 35.46 10.64L35.46 10.64L35.46 10.64Q35.26 11.40 35.18 11.97L35.18 11.97L35.18 11.97Q35.10 12.54 35.10 12.87L35.10 12.87L35.10 12.87Q35.10 13.08 35.14 13.14L35.14 13.14L35.14 13.14Q35.17 13.20 35.23 13.20ZM36.33 8.19L36.33 8.19L36.33 8.19Q36.21 8.45 36.11 8.70L36.11 8.70L36.11 8.70Q36.01 8.94 35.92 9.18L35.92 9.18L35.92 9.18Q36.13 8.94 36.31 8.72L36.31 8.72L36.31 8.72Q36.48 8.50 36.61 8.35L36.61 8.35L36.61 8.35Q36.75 8.16 36.87 8.00L36.87 8.00L36.87 8.00Q37.34 7.33 37.69 6.77L37.69 6.77L37.69 6.77Q38.04 6.21 38.27 5.78L38.27 5.78L38.27 5.78Q38.49 5.35 38.60 5.07L38.60 5.07L38.60 5.07Q38.71 4.79 38.71 4.66L38.71 4.66L38.71 4.66Q38.71 4.63 38.70 4.61L38.70 4.61L38.70 4.61Q38.70 4.59 38.66 4.59L38.66 4.59L38.66 4.59Q38.60 4.59 38.38 4.80L38.38 4.80L38.38 4.80Q38.17 5.00 37.85 5.43L37.85 5.43L37.85 5.43Q37.53 5.87 37.14 6.55L37.14 6.55L37.14 6.55Q36.74 7.23 36.33 8.19ZM38.94 13.20L38.94 13.20L38.94 13.20Q39.05 13.20 39.24 13.10L39.24 13.10L39.24 13.10Q39.43 13.01 39.66 12.86L39.66 12.86L39.66 12.86Q39.88 12.71 40.13 12.54L40.13 12.54L40.13 12.54Q40.37 12.36 40.59 12.19L40.59 12.19L40.59 12.19Q40.80 12.02 40.97 11.87L40.97 11.87L40.97 11.87Q41.15 11.73 41.23 11.66L41.23 11.66L41.23 11.66Q41.29 11.72 41.37 11.82L41.37 11.82L41.37 11.82Q41.46 11.92 41.54 12.00L41.54 12.00L41.54 12.00Q41.38 12.15 41.16 12.36L41.16 12.36L41.16 12.36Q40.93 12.58 40.67 12.80L40.67 12.80L40.67 12.80Q40.41 13.03 40.12 13.25L40.12 13.25L40.12 13.25Q39.84 13.48 39.57 13.66L39.57 13.66L39.57 13.66Q39.30 13.84 39.07 13.95L39.07 13.95L39.07 13.95Q38.83 14.05 38.68 14.05L38.68 14.05L38.68 14.05Q38.47 14.05 38.23 13.90L38.23 13.90L38.23 13.90Q37.99 13.75 37.79 13.55L37.79 13.55L37.79 13.55Q37.58 13.35 37.44 13.15L37.44 13.15L37.44 13.15Q37.30 12.94 37.28 12.84L37.28 12.84L37.28 12.84Q37.26 12.80 37.26 12.74L37.26 12.74L37.26 12.74Q37.26 12.68 37.26 12.61L37.26 12.61L37.26 12.61Q37.26 12.27 37.35 11.75L37.35 11.75L37.35 11.75Q37.43 11.22 37.58 10.64L37.58 10.64L37.58 10.64Q37.72 10.06 37.91 9.48L37.91 9.48L37.91 9.48Q38.10 8.90 38.30 8.46L38.30 8.46L38.30 8.46Q38.72 7.55 39.16 6.84L39.16 6.84L39.16 6.84Q39.60 6.14 40.02 5.62L40.02 5.62L40.02 5.62Q40.45 5.09 40.84 4.74L40.84 4.74L40.84 4.74Q41.23 4.38 41.54 4.16L41.54 4.16L41.54 4.16Q41.85 3.94 42.06 3.85L42.06 3.85L42.06 3.85Q42.28 3.75 42.36 3.75L42.36 3.75L42.36 3.75Q42.49 3.80 42.63 3.89L42.63 3.89L42.63 3.89Q42.76 3.99 42.88 4.09L42.88 4.09L42.88 4.09Q42.99 4.19 43.08 4.29L43.08 4.29L43.08 4.29Q43.17 4.39 43.21 4.44L43.21 4.44L43.21 4.44Q43.26 4.49 43.28 4.54L43.28 4.54L43.28 4.54Q43.30 4.59 43.30 4.68L43.30 4.68L43.30 4.68Q43.30 4.84 43.22 5.13L43.22 5.13L43.22 5.13Q43.13 5.41 42.91 5.85L42.91 5.85L42.91 5.85Q42.68 6.30 42.28 6.91L42.28 6.91L42.28 6.91Q41.88 7.53 41.24 8.35L41.24 8.35L41.24 8.35Q40.94 8.73 40.61 9.13L40.61 9.13L40.61 9.13Q40.32 9.47 39.94 9.87L39.94 9.87L39.94 9.87Q39.57 10.27 39.17 10.64L39.17 10.64L39.17 10.64Q38.97 11.40 38.89 11.97L38.89 11.97L38.89 11.97Q38.81 12.54 38.81 12.87L38.81 12.87L38.81 12.87Q38.81 13.08 38.85 13.14L38.85 13.14L38.85 13.14Q38.88 13.20 38.94 13.20ZM40.04 8.19L40.04 8.19L40.04 8.19Q39.92 8.45 39.82 8.70L39.82 8.70L39.82 8.70Q39.72 8.94 39.63 9.18L39.63 9.18L39.63 9.18Q39.85 8.94 40.02 8.72L40.02 8.72L40.02 8.72Q40.20 8.50 40.32 8.35L40.32 8.35L40.32 8.35Q40.46 8.16 40.58 8.00L40.58 8.00L40.58 8.00Q41.06 7.33 41.41 6.77L41.41 6.77L41.41 6.77Q41.75 6.21 41.98 5.78L41.98 5.78L41.98 5.78Q42.21 5.35 42.31 5.07L42.31 5.07L42.31 5.07Q42.42 4.79 42.42 4.66L42.42 4.66L42.42 4.66Q42.42 4.63 42.41 4.61L42.41 4.61L42.41 4.61Q42.41 4.59 42.38 4.59L42.38 4.59L42.38 4.59Q42.31 4.59 42.10 4.80L42.10 4.80L42.10 4.80Q41.88 5.00 41.56 5.43L41.56 5.43L41.56 5.43Q41.24 5.87 40.85 6.55L40.85 6.55L40.85 6.55Q40.46 7.23 40.04 8.19Z"></path></g><!----><!----></svg>